<svg xmlns="http://www.w3.org/2000/svg" viewBox="-194.97 -213.101 142.786 141.745" class="Path_365" style="&#10;    overflow: visible;&#10;    position: absolute;&#10;    overflow: visible;&#10;    position: absolute;&#10;    width: 250.602px;&#10;    height: 250.197px;&#10;    left: 0px;&#10;    top: 0px;&#10;    transform: matrix(1,0,0,1,0,0);&#10;">
                <path fill="rgba(0,0,0,1)" id="Path_365" d="M -93.4615478515625 -198.7779998779297 C -86.86146545410156 -191.0892333984375 -87.95014190673828 -174.8952178955078 -79.13868713378906 -161.4909362792969 C -70.36125946044922 -148.0866394042969 -51.68370819091797 -137.4720764160156 -52.19402313232422 -129.1709289550781 C -52.70433807373047 -120.9038162231445 -72.43654632568359 -114.9161148071289 -84.47999572753906 -104.0634002685547 C -96.55746459960938 -93.17666625976563 -101.0142211914063 -77.39089965820313 -109.9617614746094 -72.86609649658203 C -118.9433135986328 -68.34130096435547 -132.4156494140625 -75.11148834228516 -147.5890350341797 -78.445556640625 C -162.7624206542969 -81.81363677978516 -179.6368560791016 -81.81363677978516 -187.7678985595703 -90.01271057128906 C -195.89892578125 -98.21177673339844 -195.2525329589844 -114.6779708862305 -194.64013671875 -129.3410339355469 C -193.9937438964844 -144.0381317138672 -193.3473510742188 -156.9321136474609 -191.0679321289063 -172.1054992675781 C -188.8225402832031 -187.2788848876953 -184.9441528320313 -204.731689453125 -174.2615356445313 -210.5832977294922 C -163.5789184570313 -216.4009094238281 -146.1261291503906 -210.6513366699219 -130.2382965087891 -208.1678161621094 C -114.350471496582 -205.6842651367188 -100.0616302490234 -206.5007629394531 -93.4615478515625 -198.7779998779297 Z">
                </path>
</svg>